<?xml version="1.0" standalone="no"?>
<!DOCTYPE svg PUBLIC "-//W3C//DTD SVG 1.1//EN" "http://www.w3.org/Graphics/SVG/1.1/DTD/svg11.dtd" >
<svg>
<metadata>
Created by FontForge 20110222 at Mon Mar  7 12:56:18 2011
 By www-data
Copyright codeman38 2010
</metadata>
<defs>
<font id="Here-Lies-MECC" horiz-adv-x="1024" >
  <font-face 
    font-family="Here Lies MECC"
    font-weight="400"
    font-stretch="normal"
    units-per-em="1024"
    panose-1="0 0 4 0 0 0 0 0 0 0"
    ascent="896"
    descent="-128"
    x-height="640"
    cap-height="896"
    bbox="0 -128 1024 896"
    underline-thickness="51"
    underline-position="127"
    unicode-range="U+0020-007E"
  />
    <missing-glyph />
    <glyph glyph-name="space" unicode=" " 
 />
    <glyph glyph-name="exclam" unicode="!" horiz-adv-x="512" 
d="M0 0v128h256v-128h-256zM0 256v640h256v-640h-256z" />
    <glyph glyph-name="quotedbl" unicode="&#x22;" horiz-adv-x="896" 
d="M0 512v384h256v-384h-256zM384 512v384h256v-384h-256z" />
    <glyph glyph-name="numbersign" unicode="#" horiz-adv-x="1152" 
d="M512 384v128h-128v-128h128zM128 0v256h-128v128h128v128h-128v128h128v256h256v-256h128v256h256v-256h128v-128h-128v-128h128v-128h-128v-256h-256v256h-128v-256h-256z" />
    <glyph glyph-name="dollar" unicode="$" horiz-adv-x="1280" 
d="M768 256v128h-128v-128h128zM384 512v128h-128v-128h128zM384 0v128h-256v128h256v128h-256v128h-128v128h128v128h256v128h256v-128h256v-128h-256v-128h256v-128h128v-128h-128v-128h-256v-128h-256z" />
    <glyph glyph-name="percent" unicode="%" 
d="M512 0v256h256v-256h-256zM0 128v128h128v128h128v128h128v128h128v128h256v-128h-128v-128h-128v-128h-128v-128h-128v-128h-256zM0 640v256h256v-256h-256z" />
    <glyph glyph-name="ampersand" unicode="&#x26;" horiz-adv-x="1152" 
d="M384 128v256h-128v-256h128zM384 512v256h-128v-256h128zM128 0v128h-128v256h128v128h-128v256h128v128h384v-128h128v-256h-128v-128h128v128h256v-128h-128v-256h128v-128h-256v128h-128v-128h-384z" />
    <glyph glyph-name="quotesingle" unicode="'" horiz-adv-x="768" 
d="M0 512v128h128v128h128v128h256v-128h-128v-128h-128v-128h-256z" />
    <glyph glyph-name="parenleft" unicode="(" horiz-adv-x="768" 
d="M256 0v128h-128v128h-128v384h128v128h128v128h256v-128h-128v-128h-128v-384h128v-128h128v-128h-256z" />
    <glyph glyph-name="parenright" unicode=")" horiz-adv-x="768" 
d="M0 0v128h128v128h128v384h-128v128h-128v128h256v-128h128v-128h128v-384h-128v-128h-128v-128h-256z" />
    <glyph glyph-name="asterisk" unicode="*" horiz-adv-x="1280" 
d="M384 0v256h-128v-128h-256v128h128v128h128v128h-128v128h-128v128h256v-128h128v256h256v-256h128v128h256v-128h-128v-128h-128v-128h128v-128h128v-128h-256v128h-128v-256h-256z" />
    <glyph glyph-name="plus" unicode="+" 
d="M256 128v256h-256v128h256v256h256v-256h256v-128h-256v-256h-256z" />
    <glyph glyph-name="comma" unicode="," horiz-adv-x="640" 
d="M0 -128v128h128v256h256v-256h-128v-128h-256z" />
    <glyph glyph-name="hyphen" unicode="-" horiz-adv-x="896" 
d="M0 384v128h640v-128h-640z" />
    <glyph glyph-name="period" unicode="." horiz-adv-x="512" 
d="M0 0v128h256v-128h-256z" />
    <glyph glyph-name="slash" unicode="/" 
d="M0 128v128h128v128h128v128h128v128h128v128h256v-128h-128v-128h-128v-128h-128v-128h-128v-128h-256z" />
    <glyph glyph-name="zero" unicode="0" 
d="M512 128v640h-256v-640h256zM128 0v128h-128v640h128v128h512v-128h128v-640h-128v-128h-512z" />
    <glyph glyph-name="one" unicode="1" horiz-adv-x="896" 
d="M128 0v128h128v512h-128v128h128v128h256v-768h128v-128h-512z" />
    <glyph glyph-name="two" unicode="2" 
d="M0 0v256h128v128h128v128h256v256h-256v-128h-256v128h128v128h512v-128h128v-256h-128v-128h-256v-128h-128v-128h512v-128h-768z" />
    <glyph glyph-name="three" unicode="3" 
d="M128 0v128h-128v128h256v-128h256v256h-256v128h128v128h128v128h-512v128h768v-256h-128v-256h128v-256h-128v-128h-512z" />
    <glyph glyph-name="four" unicode="4" 
d="M384 384v128h-128v-128h128zM384 0v256h-384v256h128v128h128v128h128v128h256v-512h128v-128h-128v-256h-256z" />
    <glyph glyph-name="five" unicode="5" 
d="M128 0v128h-128v128h256v-128h256v384h-512v384h768v-128h-512v-128h384v-128h128v-384h-128v-128h-512z" />
    <glyph glyph-name="six" unicode="6" 
d="M512 128v256h-256v-256h256zM128 0v128h-128v512h128v128h128v128h512v-128h-384v-128h-128v-128h384v-128h128v-256h-128v-128h-512z" />
    <glyph glyph-name="seven" unicode="7" 
d="M128 0v384h128v128h128v128h128v128h-512v128h768v-256h-128v-128h-128v-128h-128v-384h-256z" />
    <glyph glyph-name="eight" unicode="8" 
d="M512 128v256h-256v-256h256zM512 512v256h-256v-256h256zM128 0v128h-128v256h128v128h-128v256h128v128h512v-128h128v-256h-128v-128h128v-256h-128v-128h-512z" />
    <glyph glyph-name="nine" unicode="9" 
d="M512 512v256h-256v-256h256zM0 0v128h384v128h128v128h-384v128h-128v256h128v128h512v-128h128v-512h-128v-128h-128v-128h-512z" />
    <glyph glyph-name="colon" unicode=":" horiz-adv-x="512" 
d="M0 128v128h256v-128h-256zM0 384v128h256v-128h-256z" />
    <glyph glyph-name="semicolon" unicode=";" horiz-adv-x="640" 
d="M0 -128v128h128v256h256v-256h-128v-128h-256zM128 384v128h256v-128h-256z" />
    <glyph glyph-name="less" unicode="&#x3c;" horiz-adv-x="896" 
d="M384 0v128h-128v128h-128v128h-128v128h128v128h128v128h128v128h256v-128h-128v-128h-128v-128h-128v-128h128v-128h128v-128h128v-128h-256z" />
    <glyph glyph-name="equal" unicode="=" horiz-adv-x="896" 
d="M0 128v128h640v-128h-640zM0 512v128h640v-128h-640z" />
    <glyph glyph-name="greater" unicode="&#x3e;" horiz-adv-x="896" 
d="M0 0v128h128v128h128v128h128v128h-128v128h-128v128h-128v128h256v-128h128v-128h128v-128h128v-128h-128v-128h-128v-128h-128v-128h-256z" />
    <glyph glyph-name="question" unicode="?" 
d="M256 0v128h256v-128h-256zM256 256v256h128v128h128v128h-256v-128h-256v128h128v128h512v-128h128v-128h-128v-128h-128v-256h-256z" />
    <glyph glyph-name="at" unicode="@" horiz-adv-x="1152" 
d="M128 0v128h-128v640h128v128h640v-128h128v-384h-128v-128h-384v384h128v-128h128v256h-384v-640h512v-128h-640z" />
    <glyph glyph-name="A" unicode="A" 
d="M512 384v256h-256v-256h256zM0 0v640h128v128h128v128h256v-128h128v-128h128v-640h-256v256h-256v-256h-256z" />
    <glyph glyph-name="B" unicode="B" 
d="M512 128v256h-256v-256h256zM512 512v256h-256v-256h256zM0 0v896h640v-128h128v-256h-128v-128h128v-256h-128v-128h-640z" />
    <glyph glyph-name="C" unicode="C" 
d="M128 0v128h-128v640h128v128h512v-128h128v-128h-256v128h-256v-640h256v128h256v-128h-128v-128h-512z" />
    <glyph glyph-name="D" unicode="D" 
d="M512 128v640h-256v-640h256zM0 0v896h640v-128h128v-640h-128v-128h-640z" />
    <glyph glyph-name="E" unicode="E" 
d="M0 0v896h768v-128h-512v-256h384v-128h-384v-256h512v-128h-768z" />
    <glyph glyph-name="F" unicode="F" 
d="M0 0v896h768v-128h-512v-256h384v-128h-384v-384h-256z" />
    <glyph glyph-name="G" unicode="G" 
d="M128 0v128h-128v640h128v128h640v-128h-512v-640h256v128h-128v128h384v-384h-640z" />
    <glyph glyph-name="H" unicode="H" 
d="M0 0v896h256v-384h256v384h256v-896h-256v384h-256v-384h-256z" />
    <glyph glyph-name="I" unicode="I" horiz-adv-x="768" 
d="M0 0v128h128v640h-128v128h512v-128h-128v-640h128v-128h-512z" />
    <glyph glyph-name="J" unicode="J" 
d="M128 0v128h-128v128h256v-128h256v768h256v-768h-128v-128h-512z" />
    <glyph glyph-name="K" unicode="K" 
d="M0 0v896h256v-256h128v128h128v128h256v-128h-128v-128h-128v-128h-128v-128h128v-128h128v-128h128v-128h-256v128h-128v128h-128v-256h-256z" />
    <glyph glyph-name="L" unicode="L" 
d="M0 0v896h256v-768h512v-128h-768z" />
    <glyph glyph-name="M" unicode="M" horiz-adv-x="1152" 
d="M0 0v896h256v-128h128v-128h128v128h128v128h256v-896h-256v512h-128v-128h-128v128h-128v-512h-256z" />
    <glyph glyph-name="N" unicode="N" horiz-adv-x="1152" 
d="M0 0v896h256v-128h128v-128h128v-128h128v384h256v-896h-256v128h-128v128h-128v128h-128v-384h-256z" />
    <glyph glyph-name="O" unicode="O" 
d="M512 128v640h-256v-640h256zM128 0v128h-128v640h128v128h512v-128h128v-640h-128v-128h-512z" />
    <glyph glyph-name="P" unicode="P" 
d="M512 512v256h-256v-256h256zM0 0v896h640v-128h128v-256h-128v-128h-384v-384h-256z" />
    <glyph glyph-name="Q" unicode="Q" 
d="M128 0v128h-128v640h128v128h512v-128h128v-512h-128v-128h128v-128h-256v128h-128v128h128v512h-256v-640h128v-128h-256z" />
    <glyph glyph-name="R" unicode="R" 
d="M512 512v256h-256v-256h256zM0 0v896h640v-128h128v-256h-128v-128h-128v-128h128v-128h128v-128h-256v128h-128v128h-128v-256h-256z" />
    <glyph glyph-name="S" unicode="S" 
d="M128 0v128h-128v128h256v-128h256v256h-384v128h-128v256h128v128h512v-128h128v-128h-256v128h-256v-256h384v-128h128v-256h-128v-128h-512z" />
    <glyph glyph-name="T" unicode="T" 
d="M256 0v768h-256v128h768v-128h-256v-768h-256z" />
    <glyph glyph-name="U" unicode="U" 
d="M128 0v128h-128v768h256v-768h256v768h256v-768h-128v-128h-512z" />
    <glyph glyph-name="V" unicode="V" 
d="M256 0v128h-128v128h-128v640h256v-640h256v640h256v-640h-128v-128h-128v-128h-256z" />
    <glyph glyph-name="W" unicode="W" horiz-adv-x="1152" 
d="M0 0v896h256v-512h128v128h128v-128h128v512h256v-896h-256v128h-128v128h-128v-128h-128v-128h-256z" />
    <glyph glyph-name="X" unicode="X" 
d="M0 0v256h128v128h128v128h-128v128h-128v256h256v-256h256v256h256v-256h-128v-128h-128v-128h128v-128h128v-256h-256v256h-256v-256h-256z" />
    <glyph glyph-name="Y" unicode="Y" 
d="M256 0v512h-128v128h-128v256h256v-256h256v256h256v-256h-128v-128h-128v-512h-256z" />
    <glyph glyph-name="Z" unicode="Z" 
d="M0 0v256h128v128h128v128h128v128h128v128h-512v128h768v-256h-128v-128h-128v-128h-128v-128h-128v-128h512v-128h-768z" />
    <glyph glyph-name="bracketleft" unicode="[" horiz-adv-x="896" 
d="M0 0v896h640v-128h-384v-640h384v-128h-640z" />
    <glyph glyph-name="backslash" unicode="\" 
d="M512 128v128h-128v128h-128v128h-128v128h-128v128h256v-128h128v-128h128v-128h128v-128h128v-128h-256z" />
    <glyph glyph-name="bracketright" unicode="]" horiz-adv-x="896" 
d="M0 0v128h384v640h-384v128h640v-896h-640z" />
    <glyph glyph-name="asciicircum" unicode="^" 
d="M0 256v128h128v128h128v128h256v-128h128v-128h128v-128h-256v128h-256v-128h-256z" />
    <glyph glyph-name="underscore" unicode="_" 
d="M0 -128v128h768v-128h-768z" />
    <glyph glyph-name="grave" unicode="`" horiz-adv-x="768" 
d="M256 512v128h-128v128h-128v128h256v-128h128v-128h128v-128h-256z" />
    <glyph glyph-name="a" unicode="a" 
d="M512 128v128h-256v-128h256zM128 0v128h-128v128h128v128h384v128h-384v128h512v-128h128v-512h-640z" />
    <glyph glyph-name="b" unicode="b" 
d="M512 128v384h-256v-384h256zM0 0v896h256v-256h384v-128h128v-384h-128v-128h-640z" />
    <glyph glyph-name="c" unicode="c" 
d="M128 0v128h-128v384h128v128h640v-128h-512v-384h512v-128h-640z" />
    <glyph glyph-name="d" unicode="d" 
d="M512 128v384h-256v-384h256zM128 0v128h-128v384h128v128h384v256h256v-896h-640z" />
    <glyph glyph-name="e" unicode="e" 
d="M512 384v128h-256v-128h256zM128 0v128h-128v384h128v128h512v-128h128v-256h-512v-128h512v-128h-640z" />
    <glyph glyph-name="f" unicode="f" 
d="M128 0v384h-128v128h128v256h128v128h384v-128h128v-128h-256v128h-128v-256h128v-128h-128v-384h-256z" />
    <glyph glyph-name="g" unicode="g" 
d="M512 256v256h-256v-256h256zM128 -128v128h384v128h-384v128h-128v256h128v128h640v-640h-128v-128h-512z" />
    <glyph glyph-name="h" unicode="h" 
d="M0 0v896h256v-256h384v-128h128v-512h-256v512h-256v-512h-256z" />
    <glyph glyph-name="i" unicode="i" horiz-adv-x="768" 
d="M0 0v128h128v384h-128v128h384v-512h128v-128h-512zM128 768v128h256v-128h-256z" />
    <glyph glyph-name="j" unicode="j" horiz-adv-x="896" 
d="M128 -128v128h-128v128h256v-128h128v512h-128v128h384v-640h-128v-128h-384zM384 768v128h256v-128h-256z" />
    <glyph glyph-name="k" unicode="k" 
d="M0 0v896h256v-512h128v128h128v128h256v-128h-128v-128h-128v-128h128v-128h128v-128h-256v128h-128v128h-128v-256h-256z" />
    <glyph glyph-name="l" unicode="l" horiz-adv-x="768" 
d="M0 0v128h128v640h-128v128h384v-768h128v-128h-512z" />
    <glyph glyph-name="m" unicode="m" horiz-adv-x="1152" 
d="M0 0v512h128v128h256v-128h128v128h256v-128h128v-512h-256v384h-128v-128h-128v128h-128v-384h-256z" />
    <glyph glyph-name="n" unicode="n" 
d="M0 0v640h640v-128h128v-512h-256v512h-256v-512h-256z" />
    <glyph glyph-name="o" unicode="o" 
d="M512 128v384h-256v-384h256zM128 0v128h-128v384h128v128h512v-128h128v-384h-128v-128h-512z" />
    <glyph glyph-name="p" unicode="p" 
d="M512 256v256h-256v-256h256zM0 -128v768h640v-128h128v-256h-128v-128h-384v-256h-256z" />
    <glyph glyph-name="q" unicode="q" 
d="M512 256v256h-256v-256h256zM512 -128v256h-384v128h-128v256h128v128h640v-768h-256z" />
    <glyph glyph-name="r" unicode="r" 
d="M0 0v640h640v-128h128v-128h-256v128h-256v-512h-256z" />
    <glyph glyph-name="s" unicode="s" 
d="M0 0v128h512v128h-384v128h-128v128h128v128h640v-128h-512v-128h384v-128h128v-128h-128v-128h-640z" />
    <glyph glyph-name="t" unicode="t" 
d="M256 0v128h-128v384h-128v128h128v256h256v-256h256v-128h-256v-384h128v128h256v-128h-128v-128h-384z" />
    <glyph glyph-name="u" unicode="u" 
d="M128 0v128h-128v512h256v-512h256v512h256v-640h-640z" />
    <glyph glyph-name="v" unicode="v" 
d="M256 0v128h-128v128h-128v384h256v-384h256v384h256v-384h-128v-128h-128v-128h-256z" />
    <glyph glyph-name="w" unicode="w" horiz-adv-x="1152" 
d="M0 0v640h256v-384h128v128h128v-128h128v384h256v-640h-384v128h-128v-128h-384z" />
    <glyph glyph-name="x" unicode="x" 
d="M0 0v128h128v128h128v128h-128v128h-128v128h256v-128h256v128h256v-128h-128v-128h-128v-128h128v-128h128v-128h-256v128h-256v-128h-256z" />
    <glyph glyph-name="y" unicode="y" 
d="M128 -128v128h384v128h-384v128h-128v384h256v-384h256v384h256v-640h-128v-128h-512z" />
    <glyph glyph-name="z" unicode="z" 
d="M0 0v128h128v128h128v128h128v128h-384v128h768v-128h-128v-128h-128v-128h-128v-128h384v-128h-768z" />
    <glyph glyph-name="braceleft" unicode="{" horiz-adv-x="768" 
d="M256 0v128h-128v256h-128v128h128v256h128v128h256v-128h-128v-256h-128v-128h128v-256h128v-128h-256z" />
    <glyph glyph-name="bar" unicode="|" horiz-adv-x="512" 
d="M0 -128v1024h256v-1024h-256z" />
    <glyph glyph-name="braceright" unicode="}" horiz-adv-x="768" 
d="M0 0v128h128v256h128v128h-128v256h-128v128h256v-128h128v-256h128v-128h-128v-256h-128v-128h-256z" />
    <glyph glyph-name="asciitilde" unicode="~" horiz-adv-x="1152" 
d="M0 640v128h128v128h384v-128h128v128h256v-128h-128v-128h-384v128h-128v-128h-256z" />
  </font>
</defs>
</svg>
